<svg viewBox="0 0 1000 1000" xml:space="preserve" xmlns="http://www.w3.org/2000/svg" enable-background="new 0 0 1000 1000"><path d="M666.6 500c0 92 74.6 166.6 166.6 166.6 35.1 0 40.9 21.7 41.7 52.3.2 9.6 0 20 0 31 0 10.9.2 21.4 0 31-.5 17.6-2.5 32.2-10.9 41.5-6.2 6.9-15.8 10.9-30.8 10.9H166.8c-46 0-41.7-37.3-41.7-83.3s-4.4-83.3 41.7-83.3c92 0 166.6-74.6 166.6-166.6s-74.6-166.6-166.6-166.6c-46 0-41.7-37.3-41.7-83.3s-4.4-83.3 41.7-83.3h666.5c35.1 0 40.9 21.7 41.7 52.3.2 9.6 0 20 0 31 0 10.9.2 21.4 0 31-.8 30.7-6.6 52.3-41.7 52.3-92.1-.1-166.7 74.5-166.7 166.5z" fill="#ffc946" class="fill-191919"></path><path d="M583.3 708.3H625v125h-41.7zM583.3 583.3H625v83.3h-41.7zM583.3 458.3H625v83.3h-41.7zM583.3 333.4H625v83.3h-41.7zM583.3 166.8H625v125h-41.7z" fill="#363636" class="fill-ededed"></path><path d="M874.9 219.1V281c-.8 30.7-6.6 52.3-41.7 52.3-92 0-166.6 74.6-166.6 166.6s74.6 166.6 166.6 166.6c35.1 0 40.9 21.7 41.7 52.3v114.3L864 822.4 666.6 625 208.4 166.8h624.8c35.1 0 40.9 21.6 41.7 52.3z" opacity=".2" fill="#ffffff" class="fill-ffffff"></path><linearGradient gradientTransform="rotate(-90 466.125 590.438)" gradientUnits="userSpaceOnUse" id="a" x1="285.806" x2="285.806" y1="749.281" y2="811.763"><stop offset="0" stop-color="#ffffff" stop-opacity=".1" class="stop-color-ffffff"></stop><stop offset="1" stop-color="#000000" stop-opacity="0" class="stop-color-000000"></stop></linearGradient><path d="M625 708.3h62.5v125H625z" fill="url(#a)" class="fillurl(-a)"></path><linearGradient gradientUnits="userSpaceOnUse" id="b" x1="656.209" x2="656.209" y1="166.761" y2="291.726"><stop offset="0" stop-color="#ffffff" stop-opacity=".1" class="stop-color-ffffff"></stop><stop offset="1" stop-color="#000000" stop-opacity="0" class="stop-color-000000"></stop></linearGradient><path d="M625 166.8h62.5v125H625z" fill="url(#b)" class="fillurl(-b)"></path><linearGradient gradientTransform="rotate(-90 466.125 590.438)" gradientUnits="userSpaceOnUse" id="c" x1="681.527" x2="681.527" y1="749.281" y2="790.936"><stop offset="0" stop-color="#ffffff" stop-opacity=".1" class="stop-color-ffffff"></stop><stop offset="1" stop-color="#000000" stop-opacity="0" class="stop-color-000000"></stop></linearGradient><path d="M625 333.4h41.7v83.3H625z" fill="url(#c)" class="fillurl(-c)"></path><linearGradient gradientTransform="rotate(-90 466.125 590.438)" gradientUnits="userSpaceOnUse" id="d" x1="556.563" x2="556.563" y1="749.281" y2="790.936"><stop offset="0" stop-color="#ffffff" stop-opacity=".1" class="stop-color-ffffff"></stop><stop offset="1" stop-color="#000000" stop-opacity="0" class="stop-color-000000"></stop></linearGradient><path d="M625 458.3h41.7v83.3H625z" fill="url(#d)" class="fillurl(-d)"></path><linearGradient gradientTransform="rotate(-90 466.125 590.438)" gradientUnits="userSpaceOnUse" id="e" x1="431.598" x2="431.598" y1="749.281" y2="790.936"><stop offset="0" stop-color="#ffffff" stop-opacity=".1" class="stop-color-ffffff"></stop><stop offset="1" stop-color="#000000" stop-opacity="0" class="stop-color-000000"></stop></linearGradient><path d="M625 583.3h41.7v83.3H625z" fill="url(#e)" class="fillurl(-e)"></path></svg>